#!OML:ASF E:\emotionWalksFemale\Project 1\Capture day 1\Session 1\Female1.ASF
:FULLY-SPECIFIED
:DEGREES
659
root 9.21835 15.383 1.96511 -183.085 -5.03354 -183.455
lowerback 8.49518 -0.706274 -3.06538
upperback -4.30436 -1.45208 -0.533073
thorax -9.30135 -0.564678 1.39849
lowerneck -9.4286 -2.28762 -6.58844
upperneck 10.0607 -2.85744 5.38397
head 4.73112 -1.35893 2.54306
rclavicle 5.73991e-015 1.21259e-014
rhumerus -51.5147 -7.27085 -46.614
rradius 41.5161
rwrist 16.1262
rhand -20.1647 -58.4758
rfingers 7.12502
rthumb 6.18078 -448.366
lclavicle 5.73991e-015 1.21259e-014
lhumerus -32.7226 -4.83732 69.4128
lradius 58.4234
lwrist -3.9172
lhand -14.4176 -33.8612
lfingers 7.12502
lthumb 11.7264 -4.20943
rfemur -26.6423 3.90822 19.2015
rtibia 41.8034
rfoot -15.7028 -23.4853
rtoes -2.97396
lfemur 11.1954 -16.3541 -35.9805
ltibia 15.0716
lfoot -19.1905 18.1329
ltoes -13.2905
660
root 9.23453 15.3843 1.78795 -182.947 -5.27114 -183.436
lowerback 8.55184 -0.860545 -3.29801
upperback -4.39046 -1.68674 -0.43196
thorax -9.41037 -0.658268 1.67729
lowerneck -9.59139 -2.1964 -6.61825
upperneck 10.1705 -2.72668 5.41073
head 4.78481 -1.29234 2.56492
rclavicle 2.67614e-014 1.43125e-014
rhumerus -52.4071 -6.44607 -46.3884
rradius 41.8666
rwrist 15.8434
rhand -19.9623 -58.8265
rfingers 7.12502
rthumb 6.37617 -448.711
lclavicle 2.67614e-014 1.43125e-014
lhumerus -32.3484 -5.90224 69.7963
lradius 60.0297
lwrist -4.08696
lhand -14.1886 -34.265
lfingers 7.12502
lthumb 11.9472 -4.62589
rfemur -26.7048 5.05813 18.8761
rtibia 38.7501
rfoot -15.172 -24.219
rtoes -3.95313
lfemur 12.1798 -16.2448 -35.9503
ltibia 14.2707
lfoot -18.8971 17.6286
ltoes -10.0254
661
root 9.25195 15.3826 1.60742 -182.846 -5.57324 -183.463
lowerback 8.48709 -1.02379 -3.51739
upperback -4.41054 -1.92837 -0.382448
thorax -9.37417 -0.760961 1.89087
lowerneck -9.62969 -2.13957 -6.42903
upperneck 10.1521 -2.64138 5.16268
head 4.77465 -1.25659 2.4624
rclavicle 2.6165e-014 3.18055e-015
rhumerus -53.2586 -5.53455 -46.3643
rradius 41.9563
rwrist 15.4577
rhand -20.605 -58.6695
rfingers 7.12502
rthumb 5.75573 -448.571
lclavicle 2.6165e-014 3.18055e-015
lhumerus -31.8265 -6.80215 70.1165
lradius 61.5064
lwrist -4.15583
lhand -14.0262 -35.1088
lfingers 7.12502
lthumb 12.1039 -5.47891
rfemur -26.6212 6.10712 18.4679
rtibia 35.8603
rfoot -14.8152 -24.8022
rtoes -5.03083
lfemur 13.1384 -16.0719 -35.9578
ltibia 13.5999
lfoot -18.3674 17.0606
ltoes -7.76332
662
root 9.27243 15.3802 1.42253 -182.807 -5.85996 -183.433
lowerback 8.39635 -1.17252 -3.61434
upperback -4.38418 -2.13482 -0.379757
thorax -9.27687 -0.857401 1.97784
lowerneck -9.48375 -2.07905 -6.27175
upperneck 9.84027 -2.56072 5.0485
head 4.64615 -1.2161 2.40731
rclavicle -2.69353e-014 -9.34288e-015
rhumerus -54.0501 -4.46826 -46.6586
rradius 41.8713
rwrist 15.0515
rhand -21.1628 -57.8412
rfingers 7.12502
rthumb 5.2172 -447.757
lclavicle -2.69353e-014 -9.34288e-015
lhumerus -31.5573 -7.70821 70.356
lradius 63.3786
lwrist -4.17716
lhand -13.9562 -35.8596
lfingers 7.12502
lthumb 12.1714 -6.23364
rfemur -26.3851 7.33151 18.0865
rtibia 33.2015
rfoot -15.0773 -25.5498
rtoes -5.24141
lfemur 14.0529 -15.8199 -35.8974
ltibia 13.1091
lfoot -17.6823 16.6991
ltoes -7.44571
663
root 9.29582 15.3809 1.23605 -182.74 -6.13446 -183.331
lowerback 8.54677 -1.28493 -3.77036
upperback -4.53647 -2.31296 -0.277937
thorax -9.51365 -0.924514 2.21055
lowerneck -9.59292 -2.06917 -6.12465
upperneck 9.98657 -2.52868 4.73041
head 4.70186 -1.21305 2.28595
rclavicle -3.12589e-014 -6.75868e-015
rhumerus -55.1095 -2.86581 -47.1714
rradius 42.0367
rwrist 14.5261
rhand -21.2403 -57.18
rfingers 7.12502
rthumb 5.14237 -447.098
lclavicle -3.12589e-014 -6.75868e-015
lhumerus -31.6639 -8.78821 70.7385
lradius 65.4311
lwrist -3.99516
lhand -13.8386 -36.2064
lfingers 7.12502
lthumb 12.2847 -6.58722
rfemur -26.1436 8.90042 17.6899
rtibia 30.8118
rfoot -15.873 -26.5192
rtoes -4.28366
lfemur 14.7459 -15.4528 -35.6687
ltibia 12.8934
lfoot -16.9104 16.3832
ltoes -8.42842
